<svg t="1670320304335" class="icon" viewBox="0 0 1024 1024" version="1.1" xmlns="http://www.w3.org/2000/svg" p-id="2549" width="64" height="64"><path d="M420.985911 623.977161a40.003877 40.003877 0 0 0 39.935478-40.002677v-95.912347h95.980746a40.003877 40.003877 0 1 0 0-80.006555h-95.980746v-95.980746a40.003877 40.003877 0 0 0-79.938156 0v95.980746h-95.980746a40.003877 40.003877 0 0 0 0 80.006555h95.980746v95.912347a39.959478 39.959478 0 0 0 39.935479 40.003877z" p-id="2550" fill="#409eff"></path><path d="M414.110001 946.607347v-2.729964l-170.869368-116.788475C155.246982 760.33378 89.034247 621.701991 81.17915 489.692915q-1.229984-21.752116-1.160385-43.547431V199.462307l5.938722 0.614391a342.726323 342.726323 0 0 0 156.259559-22.047312c48.126571-17.879766 82.123327-46.346995 109.701367-69.144296a273.904822 273.904822 0 0 1 22.869301-18.634557 50.999334 50.999334 0 0 1 33.108768-9.14628 77.925782 77.925782 0 0 0 7.987096 0 50.724537 50.724537 0 0 1 32.629973 8.872684 260.976191 260.976191 0 0 1 23.346895 18.906953c27.57924 22.799702 61.574796 51.26093 109.088175 68.8719a380.343432 380.343432 0 0 0 165.677036 22.389308l5.187532-0.545993v206.452503h0.751191a40.002677 40.002677 0 1 0 79.186965 7.985896v-221.877102a74.25743 74.25743 0 0 0-7.987095-35.083942 71.95346 71.95346 0 0 0-74.204631-37.541509l-10.919857 1.50118A268.786889 268.786889 0 0 1 615.827366 103.560759c-36.180727-13.447024-63.55597-36.312726-87.994851-56.449662-9.693473-7.985896-18.909353-15.971791-28.534427-22.799703A131.421083 131.421083 0 0 0 415.882378 0.219309 132.44467 132.44467 0 0 0 331.911074 24.241795c-9.284279 6.688713-18.431759 14.333813-28.193631 22.524906-23.75969 20.477733-51.608926 43.343434-87.788454 57.40485a267.356508 267.356508 0 0 1-121.506812 17.477772l-11.605049-1.637979a71.95346 71.95346 0 0 0-74.819022 36.995517A75.888209 75.888209 0 0 0 0.01101 192.227601V446.756276c0 16.450585 0.479994 32.831571 1.365582 47.984973 7.919897 130.234299 70.790675 303.882831 194.350661 397.121613L366.458623 1008.588937l4.163946 2.798364a40.006277 40.006277 0 0 0 35.020342 11.944644 81.92773 81.92773 0 0 0 11.810246 0v-3.959949a39.996678 39.996678 0 0 0-3.140359-73.171444l-0.205197 0.479994z" p-id="2551" fill="#409eff"></path><path d="M1018.360908 710.425232a59.066828 59.066828 0 0 0-42.959439-48.583765 76.710198 76.710198 0 0 1-28.127633-15.086203v-4.60314a47.048985 47.048985 0 0 1 2.039974-30.683599 59.322425 59.322425 0 0 0-25.562066-62.646382l-76.710198-43.725029c-17.132176-5.879923-48.839362-7.415903-61.879592 12.529037a96.141544 96.141544 0 0 1-27.105246 19.436146 89.751628 89.751628 0 0 1-27.104046-19.439746 67.249522 67.249522 0 0 0-68.527505-12.27344l-81.824531 43.725029a70.319081 70.319081 0 0 0-25.570466 61.112801v2.812764a44.999412 44.999412 0 0 1 1.53478 29.150019 188.462338 188.462338 0 0 1-29.405616 19.689343 68.783102 68.783102 0 0 0-42.702642 48.071372 153.419196 153.419196 0 0 0-5.879923 51.139732 153.419196 153.419196 0 0 0 5.625526 51.139732 59.578022 59.578022 0 0 0 42.959439 48.839362 76.707798 76.707798 0 0 1 27.101646 15.091003v2.30157l2.30157 2.30157a47.048985 47.048985 0 0 1-2.039973 30.683599 59.833618 59.833618 0 0 0 25.570466 62.647581l74.664224 42.445846a32.986369 32.986369 0 0 0 25.570466 7.159106 67.761915 67.761915 0 0 0 43.213836-18.410159 90.775214 90.775214 0 0 1 25.570466-19.433746 87.704454 87.704454 0 0 1 27.359642 19.433746 56.765259 56.765259 0 0 0 43.206636 18.406559 48.583765 48.583765 0 0 0 25.570466-6.392316l76.710198-43.469432a71.084671 71.084671 0 0 0 25.570466-61.112802v-2.812763a44.999412 44.999412 0 0 1-0.255597-29.916809 188.438339 188.438339 0 0 1 29.405616-19.685743 70.062285 70.062285 0 0 0 43.213836-51.140932s0-5.625527 1.277983-8.949483a252.6387 252.6387 0 0 0 2.812763-39.119489 240.596857 240.596857 0 0 0-5.625526-50.628539z m-129.129114 204.561328l-64.439158 39.634282a122.4812 122.4812 0 0 0-68.017511-34.008755 119.41044 119.41044 0 0 0-63.925565 27.359642l-6.13672 4.091947-67.505118-38.610696a125.54836 125.54836 0 0 0-7.415904-76.710198 114.298507 114.298507 0 0 0-51.139731-38.355099l-8.693887-4.346343-4.858736-5.114333a160.832699 160.832699 0 0 0-3.83995-25.570466 59.046429 59.046429 0 0 1-1.53478-8.182693 129.636707 129.636707 0 0 1 4.355943-32.473976c14.063816-6.13672 55.231679-25.570466 64.947951-51.139732a118.900447 118.900447 0 0 0 7.159107-74.921022l66.227135-32.985169a123.760383 123.760383 0 0 0 66.227135 30.940396 118.64725 118.64725 0 0 0 63.669968-27.359643l2.30157-1.790376 3.83995-2.557167 62.641582 38.614296a119.668437 119.668437 0 0 0 7.159106 75.176618 114.554104 114.554104 0 0 0 51.140932 38.099502l8.949483 4.60314 5.114333 5.36993a29.510015 29.510015 0 0 0 1.790377 11.251053 141.401353 141.401353 0 0 1 3.323957 23.268896 145.220903 145.220903 0 0 1-3.323957 23.268896v8.43829a102.280664 102.280664 0 0 0-61.110402 47.298582 119.158443 119.158443 0 0 0-6.90351 75.176618z m1.53478 0z" p-id="2552" fill="#409eff"></path><path d="M751.407595 650.591614a110.463357 110.463357 0 1 0 110.20656 110.463357 110.463357 110.463357 0 0 0-110.20656-110.463357z m0 157.001149a46.537792 46.537792 0 1 1 46.282195-46.537792 46.537792 46.537792 0 0 1-46.282195 46.537792z" p-id="2553" fill="#409eff"></path><path d="M578.995047 229.974308h17.000178v2.999961h-17.000178z" p-id="2554" fill="#409eff"></path></svg>